<?xml version="1.0" standalone="no"?>
<!DOCTYPE svg PUBLIC "-//W3C//DTD SVG 20010904//EN"
 "http://www.w3.org/TR/2001/REC-SVG-20010904/DTD/svg10.dtd">
<svg version="1.0" xmlns="http://www.w3.org/2000/svg"
 width="512.000000pt" height="512.000000pt" viewBox="0 0 512.000000 512.000000"
 preserveAspectRatio="xMidYMid meet">

<g transform="translate(0.000000,512.000000) scale(0.100000,-0.100000)"
fill="#000000" stroke="none">
<path d="M2480 4974 c-126 -24 -230 -81 -325 -178 -133 -134 -180 -257 -173
-452 l3 -113 -85 -12 c-113 -16 -146 -30 -166 -71 -14 -31 -14 -54 -1 -253 8
-121 12 -223 8 -226 -5 -6 -691 -28 -699 -23 -2 1 -39 84 -83 184 l-80 181 25
30 c65 77 53 194 -26 252 -18 13 -41 27 -50 30 -9 3 -162 20 -340 37 -345 34
-366 33 -422 -11 -36 -28 -66 -90 -66 -136 1 -51 31 -115 68 -142 41 -29 88
-36 422 -67 157 -14 288 -29 292 -32 4 -4 200 -451 437 -994 237 -543 442
-1009 455 -1036 55 -109 169 -184 289 -190 l69 -4 -55 -57 c-80 -82 -377 -514
-395 -575 -28 -94 18 -202 107 -254 37 -21 60 -27 133 -30 l89 -5 -24 -26
c-103 -111 -132 -267 -77 -415 30 -79 113 -166 198 -208 62 -31 74 -33 167
-33 93 0 105 2 167 33 85 42 148 105 190 190 30 61 33 74 33 162 -1 114 -24
183 -86 254 l-41 46 592 0 592 0 -37 -41 c-21 -23 -49 -67 -64 -98 -22 -49
-26 -69 -26 -156 0 -93 2 -105 33 -167 42 -85 105 -148 190 -190 61 -30 74
-33 162 -33 131 1 192 25 281 114 87 87 112 149 113 276 1 81 -2 97 -30 155
-17 36 -45 82 -63 102 l-32 36 114 4 c107 3 116 5 150 31 48 36 71 81 71 137
0 56 -23 101 -71 137 l-36 28 -1179 5 -1179 5 83 120 c168 243 178 248 650
326 194 31 573 94 842 138 538 88 544 90 580 166 18 37 19 120 2 156 -6 14 23
21 222 53 127 20 247 42 267 47 49 14 117 83 133 135 9 31 12 200 12 665 0
587 -2 626 -19 665 -10 23 -34 52 -52 65 -33 23 -40 24 -211 24 l-178 0 -31
132 c-41 176 -51 185 -186 169 l-62 -8 -6 29 c-25 112 -82 212 -156 277 -24
21 -77 54 -117 74 -61 29 -87 35 -162 40 -52 3 -108 0 -135 -7 -35 -9 -55 -9
-78 0 -25 8 -54 7 -127 -5 -52 -8 -96 -14 -98 -12 -2 2 -10 35 -17 73 -19 87
-81 214 -139 279 -61 69 -166 139 -256 171 -58 20 -98 27 -175 29 -55 1 -111
0 -125 -2z m252 -114 c185 -57 324 -221 353 -413 7 -44 7 -44 -27 -50 -18 -3
-241 -38 -496 -78 -330 -51 -467 -68 -474 -61 -20 20 -13 200 11 273 51 161
200 301 358 338 71 17 206 12 275 -9z m975 -525 c113 -34 208 -130 244 -248
12 -37 19 -70 16 -73 -5 -5 -379 -66 -382 -62 -1 2 -22 84 -45 183 -24 99 -45
185 -47 192 -3 6 4 13 14 16 41 11 153 6 200 -8z m-459 -34 c-28 -37 -38 -38
-38 -7 0 23 5 27 53 35 5 0 -2 -12 -15 -28z m-128 -78 c7 -43 13 -95 12 -115
-1 -21 -2 -81 -4 -133 -3 -106 2 -99 -86 -110 -78 -10 -105 -37 -112 -111 l-5
-59 -533 -14 c-293 -8 -535 -11 -539 -7 -8 8 -36 417 -28 424 8 8 168 32 174
26 3 -3 11 -39 18 -80 6 -41 17 -81 23 -89 17 -21 54 -19 74 4 15 17 16 26 3
103 l-13 85 245 38 c136 21 352 55 481 76 129 20 244 38 256 38 18 1 22 -9 34
-76z m-2610 31 c184 -17 282 -30 297 -40 45 -28 41 -94 -5 -118 -23 -12 -68
-10 -332 15 -168 16 -315 33 -328 39 -32 14 -46 55 -30 88 16 34 52 51 92 46
17 -2 155 -16 306 -30z m2929 -131 c23 -89 41 -168 41 -176 0 -10 -33 -19
-120 -32 -67 -9 -123 -15 -126 -12 -3 3 -6 39 -6 79 1 79 16 133 55 194 23 38
105 119 112 112 2 -2 22 -76 44 -165z m780 -279 c13 -52 20 -98 17 -102 -9 -9
-959 -33 -967 -24 -4 4 -9 23 -11 42 l-3 35 362 55 c317 49 363 54 367 41 3
-9 8 -35 11 -59 8 -48 40 -78 75 -67 33 10 42 39 31 98 -5 28 -6 55 -3 59 4 4
23 8 42 11 19 2 40 5 46 5 5 1 20 -41 33 -94z m-1067 -103 c4 -27 1 -29 -31
-35 -68 -11 -78 -8 -83 24 -5 31 3 35 78 39 28 1 32 -3 36 -28z m1538 -121
c19 -19 20 -33 20 -427 0 -223 -2 -404 -4 -402 -2 2 -63 141 -136 309 -91 209
-142 340 -161 415 -16 61 -29 111 -29 112 -1 7 53 11 163 12 115 1 129 -1 147
-19z m-408 -117 c48 -112 69 -185 168 -590 82 -332 111 -466 103 -474 -6 -6
-28 -13 -50 -16 l-39 -5 -260 598 -261 599 101 6 c56 3 119 6 142 7 l40 2 56
-127z m61 -1103 c-10 -9 -251 -45 -258 -38 -5 4 -545 1238 -545 1244 0 2 64 5
143 6 l142 3 263 -604 c145 -332 260 -607 255 -611z m-647 572 c233 -535 271
-628 256 -633 -38 -14 -245 -40 -252 -32 -9 9 -560 1275 -560 1286 0 6 270 15
279 9 3 -1 127 -285 277 -630z m-890 181 l191 -438 17 -254 c9 -140 19 -258
21 -261 5 -8 -43 -20 -79 -20 -19 0 -59 86 -324 693 -166 380 -302 695 -302
699 0 4 53 9 118 11 64 1 128 4 143 5 24 2 33 -16 215 -435z m135 410 c0 -16
8 -141 17 -280 9 -139 14 -249 11 -245 -4 5 -215 486 -236 540 -4 9 20 12 101
12 l106 0 1 -27z m-419 -695 c255 -588 303 -704 289 -709 -37 -14 -253 -41
-260 -33 -4 5 -146 329 -316 719 -169 391 -309 713 -312 718 -2 4 63 7 144 7
l148 0 307 -702z m-768 650 c9 -70 39 -569 35 -573 -4 -3 -242 535 -265 598
-6 16 4 17 109 17 l116 0 5 -42z m-142 -433 l199 -459 20 -290 c23 -326 27
-345 101 -386 35 -20 49 -22 110 -16 l69 6 14 -35 c8 -19 15 -36 15 -39 0 -11
-142 -28 -181 -22 -57 8 -141 57 -172 98 -24 32 -697 1574 -697 1597 0 8 45
11 161 9 l161 -3 200 -460z m1722 -215 c172 -394 251 -587 243 -591 -22 -12
-250 -40 -257 -32 -4 4 -55 118 -113 253 l-106 245 -20 335 c-12 184 -23 358
-26 385 -4 50 -4 50 10 20 9 -16 130 -293 269 -615z m-1170 -115 c238 -544
281 -651 267 -656 -37 -14 -253 -41 -260 -33 -4 5 -64 140 -133 299 l-126 290
-21 350 c-12 193 -24 370 -26 395 -6 58 -34 118 299 -645z m2544 -308 l4 -107
-34 -34 c-26 -26 -45 -35 -87 -41 -55 -7 -65 -4 -75 31 -6 19 -1 22 35 28 48
8 104 57 115 102 5 19 -5 77 -31 184 -21 85 -40 164 -42 175 -2 11 22 -36 53
-105 57 -124 58 -126 62 -233z m-1534 -145 l34 -80 -24 -5 c-39 -7 -54 16 -54
86 0 34 -3 73 -6 87 -8 38 10 6 50 -88z m-1169 -121 c47 -107 55 -135 44 -142
-22 -14 -55 -10 -77 9 -18 15 -22 33 -28 147 -3 72 -4 128 -2 125 3 -3 31 -65
63 -139z m2410 89 c17 -34 36 -26 -156 -59 l-107 -18 -15 33 -16 32 122 20
c160 26 154 27 172 -8z m-385 -49 c22 -42 14 -46 -102 -65 -62 -9 -123 -20
-136 -23 -18 -4 -25 1 -36 28 l-14 34 126 22 c160 27 149 26 162 4z m-380 -67
c6 -14 10 -29 10 -33 0 -5 -48 -16 -107 -25 -60 -10 -120 -20 -135 -23 -22 -4
-29 0 -43 27 -9 17 -15 33 -13 35 4 4 228 43 256 44 16 1 25 -7 32 -25z m-380
-64 c7 -17 11 -32 9 -35 -5 -4 -239 -45 -260 -45 -13 0 -44 59 -36 67 4 4 225
40 253 42 15 1 25 -8 34 -29z m802 -37 c24 -22 23 -75 -2 -98 -20 -18 -40 -22
-1310 -230 -367 -60 -416 -71 -496 -116 -89 -50 -139 -104 -269 -295 -115
-168 -127 -189 -119 -213 l9 -26 1232 -5 c1343 -5 1253 -1 1268 -60 4 -18 0
-34 -15 -53 l-22 -27 -1300 2 -1300 3 -34 37 c-27 30 -34 46 -34 79 0 22 5 50
11 62 31 59 301 438 349 491 70 75 178 146 266 174 62 20 1648 288 1718 291
16 0 38 -6 48 -16z m-1182 -23 c7 -17 10 -34 6 -37 -7 -7 -217 -42 -253 -43
-15 0 -24 9 -32 32 -6 17 -9 33 -7 35 5 6 212 40 247 42 21 1 29 -6 39 -29z
m-382 -62 c6 -18 8 -35 4 -39 -4 -3 -56 -14 -117 -23 -60 -10 -118 -20 -127
-22 -13 -4 -23 5 -35 30 -9 20 -14 38 -11 42 7 6 209 42 248 43 20 1 28 -6 38
-31z m-279 -1394 c12 -15 21 -35 21 -46 0 -24 -44 -68 -68 -68 -33 0 -72 38
-72 71 0 65 80 93 119 43z m1703 9 c24 -28 27 -47 13 -80 -15 -35 -54 -49 -88
-32 -30 16 -37 28 -37 66 0 55 77 86 112 46z"/>
</g>
</svg>
